<svg width="80" height="80" viewBox="0 0 80 80" fill="none" xmlns="http://www.w3.org/2000/svg">
<g clip-path="url(#clip0_275_997)">
<path d="M43.3345 6.83667V3.33333C43.3345 2.44928 42.9833 1.60143 42.3582 0.976311C41.7331 0.35119 40.8852 0 40.0012 0C39.1171 0 38.2693 0.35119 37.6441 0.976311C37.019 1.60143 36.6678 2.44928 36.6678 3.33333V6.83667C29.957 7.4383 23.5426 9.88068 18.1311 13.8947C12.7197 17.9088 8.52124 23.3387 5.99844 29.5863C3.47563 35.8338 2.72635 42.6565 3.83314 49.3027C4.93993 55.9488 7.85983 62.1605 12.2712 67.2533C10.5291 68.1152 9.07326 69.4622 8.07911 71.1324C7.08496 72.8025 6.59485 74.7244 6.66782 76.6667C6.66782 77.5507 7.01901 78.3986 7.64413 79.0237C8.26925 79.6488 9.1171 80 10.0012 80C10.8852 80 11.7331 79.6488 12.3582 79.0237C12.9833 78.3986 13.3345 77.5507 13.3345 76.6667C13.3068 75.6392 13.6756 74.6405 14.3645 73.8778C15.0535 73.115 16.0095 72.6467 17.0345 72.57C17.2638 72.5264 17.4874 72.457 17.7012 72.3633C24.0863 77.3157 31.9373 80.0035 40.0178 80.0035C48.0984 80.0035 55.9494 77.3157 62.3345 72.3633C62.5296 72.4532 62.7327 72.5246 62.9412 72.5767C63.9697 72.6468 64.9314 73.1113 65.6258 73.8734C66.3201 74.6354 66.6934 75.6361 66.6678 76.6667C66.6678 77.5507 67.019 78.3986 67.6441 79.0237C68.2693 79.6488 69.1171 80 70.0012 80C70.8852 80 71.7331 79.6488 72.3582 79.0237C72.9833 78.3986 73.3345 77.5507 73.3345 76.6667C73.4075 74.7244 72.9174 72.8025 71.9232 71.1324C70.9291 69.4622 69.4733 68.1152 67.7312 67.2533C72.1425 62.1605 75.0624 55.9488 76.1692 49.3027C77.276 42.6565 76.5267 35.8338 74.0039 29.5863C71.4811 23.3387 67.2827 17.9088 61.8712 13.8947C56.4597 9.88068 50.0453 7.4383 43.3345 6.83667ZM10.0012 43.3333C10.0012 37.3999 11.7606 31.5997 15.0571 26.6662C18.3535 21.7328 23.0389 17.8876 28.5207 15.6169C34.0024 13.3463 40.0344 12.7522 45.8539 13.9098C51.6733 15.0673 57.0188 17.9246 61.2144 22.1201C65.4099 26.3157 68.2672 31.6612 69.4247 37.4806C70.5823 43.3001 69.9882 49.3321 67.7175 54.8138C65.4469 60.2956 61.6017 64.981 56.6683 68.2774C51.7348 71.5739 45.9346 73.3333 40.0012 73.3333C32.0476 73.3236 24.4227 70.1598 18.7987 64.5358C13.1747 58.9118 10.0109 51.2868 10.0012 43.3333Z" fill="url(#paint0_linear_275_997)"/>
<path d="M64.0501 -0.000153857C63.1661 -0.000153857 62.3182 0.351036 61.6931 0.976157C61.068 1.60128 60.7168 2.44912 60.7168 3.33318C60.7168 4.21723 61.068 5.06508 61.6931 5.6902C62.3182 6.31532 63.1661 6.66651 64.0501 6.66651C65.2125 6.57815 66.3807 6.72611 67.4843 7.10145C68.588 7.47679 69.6041 8.07175 70.4716 8.85045C71.3391 9.62915 72.0399 10.5755 72.5317 11.6323C73.0236 12.6892 73.2963 13.8347 73.3335 14.9998C73.3335 15.8839 73.6846 16.7317 74.3098 17.3569C74.9349 17.982 75.7827 18.3332 76.6668 18.3332C77.5509 18.3332 78.3987 17.982 79.0238 17.3569C79.6489 16.7317 80.0001 15.8839 80.0001 14.9998C79.9575 12.9615 79.5087 10.9521 78.6802 9.08928C77.8516 7.22643 76.6599 5.54753 75.1747 4.15079C73.6895 2.75406 71.9407 1.66753 70.0305 0.954793C68.1204 0.242052 66.0873 -0.0825951 64.0501 -0.000153857Z" fill="url(#paint1_linear_275_997)"/>
<path d="M6.66667 14.9998C6.70382 13.8347 6.97654 12.6892 7.4684 11.6323C7.96025 10.5755 8.66103 9.62915 9.52851 8.85045C10.396 8.07175 11.4122 7.47679 12.5158 7.10145C13.6194 6.72611 14.7876 6.57815 15.95 6.66651C16.8341 6.66651 17.6819 6.31532 18.307 5.6902C18.9321 5.06508 19.2833 4.21723 19.2833 3.33318C19.2833 2.44912 18.9321 1.60128 18.307 0.976157C17.6819 0.351036 16.8341 -0.000153857 15.95 -0.000153857C13.9129 -0.0825951 11.8798 0.242052 9.9696 0.954793C8.05945 1.66753 6.31062 2.75406 4.82542 4.15079C3.34022 5.54753 2.14849 7.22643 1.31994 9.08928C0.491384 10.9521 0.0426541 12.9615 0 14.9998C0 15.8839 0.35119 16.7317 0.976311 17.3569C1.60143 17.982 2.44928 18.3332 3.33333 18.3332C4.21739 18.3332 5.06523 17.982 5.69036 17.3569C6.31548 16.7317 6.66667 15.8839 6.66667 14.9998Z" fill="url(#paint2_linear_275_997)"/>
<path d="M43.3346 38.62V23.3333C43.3346 22.4493 42.9834 21.6014 42.3583 20.9763C41.7332 20.3512 40.8854 20 40.0013 20C39.1172 20 38.2694 20.3512 37.6443 20.9763C37.0192 21.6014 36.668 22.4493 36.668 23.3333V40C36.6682 40.884 37.0195 41.7317 37.6446 42.3567L47.6446 52.3567C48.2733 52.9639 49.1153 53.2998 49.9893 53.2922C50.8633 53.2847 51.6993 52.9341 52.3174 52.3161C52.9354 51.698 53.2859 50.862 53.2935 49.988C53.3011 49.114 52.9652 48.272 52.358 47.6433L43.3346 38.62Z" fill="url(#paint3_linear_275_997)"/>
</g>
<defs>
<linearGradient id="paint0_linear_275_997" x1="100.438" y1="-9.28612" x2="-71.1249" y2="19.5613" gradientUnits="userSpaceOnUse">
<stop stop-color="#00D7FF"/>
<stop offset="1" stop-color="#231123"/>
</linearGradient>
<linearGradient id="paint1_linear_275_997" x1="86.2513" y1="-2.14213" x2="41.5236" y2="6.48224" gradientUnits="userSpaceOnUse">
<stop stop-color="#00D7FF"/>
<stop offset="1" stop-color="#231123"/>
</linearGradient>
<linearGradient id="paint2_linear_275_997" x1="25.5345" y1="-2.14213" x2="-19.1932" y2="6.48224" gradientUnits="userSpaceOnUse">
<stop stop-color="#00D7FF"/>
<stop offset="1" stop-color="#231123"/>
</linearGradient>
<linearGradient id="paint3_linear_275_997" x1="58.6833" y1="16.1357" x2="19.0191" y2="19.7693" gradientUnits="userSpaceOnUse">
<stop stop-color="#00D7FF"/>
<stop offset="1" stop-color="#231123"/>
</linearGradient>
<clipPath id="clip0_275_997">
<rect width="80" height="80" fill="white"/>
</clipPath>
</defs>
</svg>
