<svg width="110" height="40" viewBox="0 0 110 40" fill="none" xmlns="http://www.w3.org/2000/svg">
<path d="M17.3648 33L8.04078 19.68L17.3648 7.8H22.7648L13.3688 19.68L22.7648 33H17.3648ZM3.07278 33V7.8H7.68078V33H3.07278ZM25.6431 33V7.8H30.2511V33H25.6431ZM35.8033 33V7.8H44.7673C46.6993 7.8 48.3313 8.088 49.6633 8.664C50.9953 9.24 52.0033 10.128 52.6873 11.328C53.3833 12.528 53.7313 14.064 53.7313 15.936C53.7313 17.832 53.3893 19.398 52.7053 20.634C52.0213 21.858 51.0193 22.77 49.6993 23.37C48.3793 23.958 46.7713 24.252 44.8753 24.252H40.4113V33H35.8033ZM40.4113 20.4H44.3353C45.9073 20.4 47.0833 20.046 47.8633 19.338C48.6553 18.63 49.0513 17.52 49.0513 16.008C49.0513 14.496 48.6493 13.392 47.8453 12.696C47.0533 12 45.8473 11.652 44.2273 11.652H40.4113V20.4ZM86.4024 33V12.264H79.2744V7.8H98.1384V12.264H91.0104V33H86.4024ZM101.44 33V7.8H106.048V33H101.44Z" fill="url(#paint0_linear_275_1531)"/>
<path d="M75.3423 15C75.3423 12.812 74.4697 10.7135 72.9165 9.16637C71.3633 7.61919 69.2566 6.75 67.0601 6.75C64.8635 6.75 62.7569 7.61919 61.2036 9.16637C59.6504 10.7135 58.7778 12.812 58.7778 15C58.7778 24.625 54.6367 27.375 54.6367 27.375H79.4834C79.4834 27.375 75.3423 24.625 75.3423 15Z" fill="url(#paint1_linear_275_1531)"/>
<path d="M69.448 32.875C69.2053 33.2917 68.8569 33.6376 68.4378 33.8781C68.0187 34.1186 67.5436 34.2451 67.0599 34.2451C66.5763 34.2451 66.1011 34.1186 65.682 33.8781C65.2629 33.6376 64.9146 33.2917 64.6719 32.875" fill="url(#paint2_linear_275_1531)"/>
<defs>
<linearGradient id="paint0_linear_275_1531" x1="144.636" y1="-4.64286" x2="-65.163" y2="100.233" gradientUnits="userSpaceOnUse">
<stop stop-color="#00D7FF"/>
<stop offset="1" stop-color="#231123"/>
</linearGradient>
<linearGradient id="paint1_linear_275_1531" x1="87.5381" y1="4.35603" x2="30.5469" y2="16.9508" gradientUnits="userSpaceOnUse">
<stop stop-color="#00D7FF"/>
<stop offset="1" stop-color="#231123"/>
</linearGradient>
<linearGradient id="paint2_linear_275_1531" x1="70.9962" y1="32.716" x2="62.8411" y2="37.931" gradientUnits="userSpaceOnUse">
<stop stop-color="#00D7FF"/>
<stop offset="1" stop-color="#231123"/>
</linearGradient>
</defs>
</svg>
