<svg width="435" height="179" viewBox="0 0 435 179" fill="none" xmlns="http://www.w3.org/2000/svg">
<path d="M68.256 130L30.96 76.72L68.256 29.2H89.856L52.272 76.72L89.856 130H68.256ZM11.088 130V29.2H29.52V130H11.088ZM101.369 130V29.2H119.801V130H101.369ZM142.01 130V29.2H177.866C185.594 29.2 192.122 30.352 197.45 32.656C202.778 34.96 206.81 38.512 209.546 43.312C212.33 48.112 213.722 54.256 213.722 61.744C213.722 69.328 212.354 75.592 209.618 80.536C206.882 85.432 202.874 89.08 197.594 91.48C192.314 93.832 185.882 95.008 178.298 95.008H160.442V130H142.01ZM160.442 79.6H176.138C182.426 79.6 187.13 78.184 190.25 75.352C193.418 72.52 195.002 68.08 195.002 62.032C195.002 55.984 193.394 51.568 190.178 48.784C187.01 46 182.186 44.608 175.706 44.608H160.442V79.6ZM344.406 130V47.056H315.894V29.2H391.35V47.056H362.838V130H344.406ZM404.557 130V29.2H422.989V130H404.557Z" fill="#F4F3F4"/>
<path d="M304.5 68.3335C304.5 57.327 300.128 46.7713 292.345 38.9886C284.562 31.2058 274.006 26.8335 263 26.8335C251.994 26.8335 241.438 31.2058 233.655 38.9886C225.872 46.7713 221.5 57.327 221.5 68.3335C221.5 116.75 200.75 130.583 200.75 130.583H325.25C325.25 130.583 304.5 116.75 304.5 68.3335Z" fill="url(#paint0_linear_275_749)"/>
<path d="M274.966 158.25C273.75 160.346 272.004 162.086 269.904 163.296C267.804 164.505 265.423 165.142 263 165.142C260.577 165.142 258.196 164.505 256.096 163.296C253.996 162.086 252.25 160.346 251.034 158.25" fill="url(#paint1_linear_275_749)"/>
<defs>
<linearGradient id="paint0_linear_275_749" x1="365.61" y1="14.7911" x2="79.9389" y2="77.6772" gradientUnits="userSpaceOnUse">
<stop stop-color="#00D7FF"/>
<stop offset="1" stop-color="#231123"/>
</linearGradient>
<linearGradient id="paint1_linear_275_749" x1="282.724" y1="157.45" x2="241.768" y2="183.538" gradientUnits="userSpaceOnUse">
<stop stop-color="#00D7FF"/>
<stop offset="1" stop-color="#231123"/>
</linearGradient>
</defs>
</svg>
